<?xml version="1.0" encoding="UTF-8" standalone="no"?>
<!DOCTYPE svg PUBLIC "-//W3C//DTD SVG 1.1//EN" "http://www.w3.org/Graphics/SVG/1.1/DTD/svg11.dtd">
<svg width="100%" height="100%" viewBox="0 0 32 32" version="1.1" xmlns="http://www.w3.org/2000/svg" xmlns:xlink="http://www.w3.org/1999/xlink" xml:space="preserve" xmlns:serif="http://www.serif.com/" style="fill-rule:evenodd;clip-rule:evenodd;stroke-linejoin:round;stroke-miterlimit:2;">
    <g transform="matrix(1.38033,0,0,1.38033,0.241269,-1.0392)">
        <path d="M9.774,11.526C9.792,10.903 9.468,10.489 8.78,10.263C8.711,10.263 8.643,10.254 8.575,10.255C7.516,10.265 6.656,10.682 6.081,11.575C5.634,12.27 5.936,12.962 6.733,13.168C7.326,13.32 7.954,13.256 8.504,12.986C8.816,12.756 9.144,12.545 9.434,12.292C9.651,12.097 9.775,11.818 9.774,11.526Z" style="fill:white;fill-rule:nonzero;"/>
        <path d="M19.563,13.328C19.059,12.779 18.711,12.137 18.433,11.455C18.013,10.424 17.452,9.481 16.661,8.695C15.11,7.152 13.252,6.293 10.817,6.249C10.563,6.28 10.082,6.312 9.612,6.402C8.189,6.679 7.035,7.457 6.012,8.438C5.183,9.238 4.545,10.215 4.148,11.297C3.67,12.572 3.27,13.876 2.848,15.172C2.728,15.543 2.822,15.907 3.037,16.221C3.761,17.281 4.498,18.327 5.437,19.222C6.827,20.548 8.511,21.128 10.375,21.281C11.316,21.357 12.249,21.233 13.169,21.014C14.801,20.627 16.191,19.84 17.277,18.542C18.275,17.35 19.031,15.997 19.842,14.681C20.002,14.421 20.013,14.095 19.869,13.825C19.792,13.645 19.689,13.478 19.563,13.328ZM15.135,18.523C14.016,19.305 12.75,19.713 11.392,19.864C9.741,20.048 8.257,19.649 6.946,18.63C6.895,18.585 6.846,18.538 6.799,18.489C5.683,17.571 4.985,16.403 4.806,14.962C4.593,13.256 5.159,11.75 6.106,10.378C6.882,9.252 7.899,8.416 9.224,8.014C11.677,7.269 14.827,8.078 16.498,10.81C17.023,11.661 17.351,12.617 17.458,13.611C17.465,13.736 17.465,13.862 17.458,13.988C17.496,15.915 16.7,17.428 15.135,18.523Z" style="fill:rgb(77,64,63);fill-rule:nonzero;"/>
        <path d="M16.889,20.86C15.55,21.258 14.22,21.684 12.872,22.046C11.848,22.32 10.801,22.512 9.764,22.741C9.64,22.758 9.518,22.788 9.4,22.832C9.299,22.873 9.218,22.949 9.17,23.047C9.153,23.101 9.259,23.227 9.338,23.272C9.485,23.361 9.644,23.429 9.81,23.473C10.521,23.649 11.236,23.809 11.976,23.769C12.249,23.754 12.522,23.733 12.795,23.701C13.662,23.598 14.49,23.279 15.202,22.772C15.827,22.336 16.336,21.775 16.867,21.238C16.957,21.147 17.007,21.017 17.075,20.904L17.015,20.839C16.973,20.843 16.93,20.85 16.889,20.86Z" style="fill-opacity:0.3;fill-rule:nonzero;"/>
        <path d="M10.219,5.895C10.414,6.08 10.557,6.059 10.678,5.827C10.719,5.745 10.754,5.661 10.784,5.574C11.055,4.835 11.155,4.066 11.199,3.254C11.172,2.931 11.158,2.575 11.109,2.224C11.073,1.962 11.014,1.704 10.934,1.453C10.864,1.223 10.781,0.973 10.502,0.924C10.211,0.872 10.078,1.108 9.94,1.306C8.974,2.678 9.144,4.485 10.086,5.741C10.126,5.796 10.17,5.848 10.219,5.895ZM14.709,6.54C14.728,6.53 14.748,6.518 14.768,6.506C15.785,5.943 16.646,5.136 17.273,4.157C17.398,3.953 17.49,3.73 17.545,3.497C17.639,3.115 17.482,2.942 17.096,2.995C16.791,3.039 16.489,3.108 16.195,3.202C14.859,3.611 14.103,4.618 14.105,5.968L14.105,6.174C14.13,6.652 14.285,6.747 14.709,6.54ZM6.591,7.264C6.943,7.409 7.126,7.244 7.061,6.866C7.017,6.606 6.949,6.352 6.889,6.096C6.64,5.053 6.048,4.254 5.162,3.663C5.067,3.6 4.964,3.548 4.856,3.51C4.673,3.442 4.531,3.503 4.481,3.689C4.438,3.878 4.407,4.069 4.387,4.262C4.397,5.769 5.17,6.683 6.591,7.264Z" style="fill:rgb(76,64,64);fill-rule:nonzero;"/>
        <path d="M14.921,12.074C14.14,11.929 13.354,11.972 12.574,12.104C12.428,12.129 12.279,12.14 12.132,12.158C12.371,13.809 12.43,15.46 12.102,17.106C12.033,17.442 11.94,17.772 11.824,18.094C11.632,18.642 11.105,18.798 10.638,18.452C10.504,18.346 10.384,18.223 10.281,18.085C9.356,16.894 8.807,15.542 8.571,14.058C7.73,14.845 7.118,15.774 6.835,16.902C6.726,17.334 6.677,17.772 6.79,18.217C6.803,18.307 6.806,18.398 6.799,18.489C6.846,18.538 6.895,18.585 6.946,18.63C8.258,19.651 9.741,20.048 11.393,19.864C12.75,19.711 14.017,19.305 15.136,18.523C16.7,17.428 17.496,15.915 17.461,13.989C17.278,13.701 17.122,13.391 16.908,13.13C16.397,12.507 15.69,12.217 14.921,12.074Z" style="fill:rgb(253,137,23);fill-rule:nonzero;"/>
        <path d="M17.458,13.611C17.351,12.617 17.023,11.66 16.498,10.81C14.827,8.077 11.681,7.268 9.224,8.013C7.899,8.416 6.882,9.252 6.106,10.378C5.159,11.755 4.593,13.256 4.806,14.962C4.986,16.403 5.684,17.568 6.8,18.489C6.807,18.398 6.804,18.307 6.791,18.217C6.678,17.772 6.726,17.334 6.836,16.902C7.119,15.774 7.73,14.845 8.572,14.058C8.55,13.701 8.529,13.344 8.508,12.987C7.958,13.257 7.33,13.322 6.736,13.169C5.94,12.964 5.638,12.272 6.085,11.577C6.66,10.683 7.519,10.267 8.578,10.256C8.647,10.256 8.715,10.261 8.784,10.264C8.86,9.881 9.025,9.521 9.264,9.213C9.398,9.043 9.559,8.896 9.74,8.776C10.127,8.526 10.517,8.556 10.828,8.896C11.064,9.158 11.263,9.452 11.418,9.769C11.792,10.522 11.958,11.343 12.132,12.159C12.28,12.142 12.428,12.131 12.574,12.106C13.355,11.973 14.14,11.931 14.922,12.076C15.69,12.218 16.398,12.509 16.91,13.131C17.125,13.393 17.281,13.702 17.464,13.991C17.469,13.864 17.467,13.737 17.458,13.611Z" style="fill:rgb(253,185,25);fill-rule:nonzero;"/>
        <path d="M10.281,18.085C10.384,18.223 10.504,18.346 10.638,18.452C11.105,18.798 11.632,18.642 11.824,18.094C11.94,17.772 12.033,17.442 12.102,17.106C12.43,15.46 12.371,13.809 12.132,12.158C11.957,11.342 11.791,10.521 11.418,9.767C11.262,9.45 11.063,9.157 10.827,8.894C10.516,8.554 10.126,8.525 9.739,8.775C9.558,8.894 9.398,9.041 9.264,9.212C9.024,9.52 8.859,9.88 8.783,10.263C9.472,10.489 9.792,10.903 9.777,11.526C9.779,11.817 9.656,12.095 9.44,12.291C9.15,12.545 8.822,12.756 8.51,12.985C8.532,13.342 8.553,13.699 8.574,14.056C8.807,15.542 9.356,16.894 10.281,18.085Z" style="fill:rgb(78,63,63);fill-rule:nonzero;"/>
    </g>
</svg>
