<?xml version="1.0" encoding="UTF-8" standalone="no"?>
<!DOCTYPE svg PUBLIC "-//W3C//DTD SVG 1.1//EN" "http://www.w3.org/Graphics/SVG/1.1/DTD/svg11.dtd">
<svg width="100%" height="100%" viewBox="0 0 32 32" version="1.1" xmlns="http://www.w3.org/2000/svg" xmlns:xlink="http://www.w3.org/1999/xlink" xml:space="preserve" xmlns:serif="http://www.serif.com/" style="fill-rule:evenodd;clip-rule:evenodd;stroke-linejoin:round;stroke-miterlimit:2;">
    <g transform="matrix(1.43223,0,0,1.43223,-1.33123,-0.309611)">
        <path d="M7.551,19.682L7.418,19.612L7.34,19.548L7.207,19.463C6.696,19 6.509,18.351 6.218,17.761C6.14,17.604 6.072,17.447 5.998,17.29L5.93,17.152L5.856,17.007C5.852,16.961 5.842,16.916 5.826,16.872C5.521,16.24 5.227,15.601 4.901,14.981C4.698,14.611 4.475,14.252 4.232,13.907C3.877,13.384 3.593,13.344 3.101,13.723C3.046,13.765 2.986,13.801 2.932,13.846C2.702,14.032 2.412,14.129 2.116,14.118C1.758,14.078 1.451,13.845 1.315,13.511C1.162,13.181 1.074,12.825 1.056,12.462C0.957,10.48 1.707,8.798 2.909,7.289C3.96,5.968 5.353,4.961 6.937,4.377C7.43,4.194 7.938,4.056 8.456,3.966C8.881,3.887 9.333,3.873 9.661,4.279C10.01,4.005 10.325,3.746 10.65,3.502C11.879,2.574 13.252,1.959 14.769,1.724C15.313,1.64 15.898,1.693 16.445,1.791C16.976,1.886 17.139,2.072 17.207,2.771C17.231,3.014 17.207,3.26 17.207,3.54C17.294,3.524 17.379,3.503 17.464,3.478C18.461,3.114 19.501,2.97 20.552,2.881C21.204,2.836 21.86,2.89 22.496,3.043C22.847,3.121 23.017,3.313 23.081,3.682C23.277,4.827 23.125,5.938 22.825,7.041C22.668,7.605 22.502,8.164 22.341,8.726C22.319,8.804 22.307,8.882 22.291,8.961C22.242,9.051 22.199,9.144 22.162,9.24C21.84,10.231 21.426,11.19 20.927,12.105C20.312,13.232 19.438,14.064 18.146,14.344C17.441,14.501 17.043,14.393 16.814,13.657C16.769,13.475 16.71,13.298 16.638,13.125C16.56,12.968 16.436,12.83 16.282,12.614C16.221,12.799 16.181,12.892 16.159,12.988C16.081,13.342 16.043,13.705 15.938,14.049C15.703,14.818 15.441,15.579 15.182,16.34C15.087,16.62 14.888,16.754 14.584,16.807C14.122,16.875 13.651,16.871 13.19,16.795C12.676,16.724 12.508,16.581 12.353,16.09C12.262,15.788 12.147,15.495 12.009,15.212C11.78,14.751 11.37,14.405 10.877,14.259C10.85,14.602 10.817,14.915 10.802,15.228C10.773,15.919 10.764,16.61 10.724,17.3C10.683,18.005 10.465,18.668 10.15,19.306C9.819,19.979 9.148,20.12 8.62,20.003C8.258,19.92 7.906,19.791 7.551,19.682ZM21.945,5.293C21.967,5.227 21.982,5.158 21.99,5.088C22.009,4.355 21.8,4.05 21.022,4.022L20.951,4.022C20.299,4.006 19.672,4.134 19.045,4.306C18.395,4.485 17.778,4.739 17.264,5.19C17.174,5.26 17.111,5.359 17.086,5.471C16.999,6.348 16.929,7.225 16.851,8.102C16.79,8.552 16.729,9.001 16.668,9.451C16.595,9.995 16.525,10.541 16.448,11.085C16.421,11.27 16.455,11.394 16.654,11.464C16.955,11.57 17.163,11.798 17.316,12.068C17.438,12.281 17.545,12.504 17.645,12.728C17.724,12.913 17.823,12.975 18.051,12.942C18.509,12.886 18.925,12.645 19.202,12.274C19.504,11.873 19.808,11.462 20.028,11.013C20.623,9.819 21.129,8.582 21.542,7.313C21.754,6.655 21.945,5.993 21.945,5.293ZM15.932,4.437C15.939,4.076 15.973,3.713 15.945,3.355C15.92,3.057 15.724,2.896 15.423,2.885C15.166,2.87 14.907,2.887 14.655,2.936C12.966,3.324 11.534,4.175 10.296,5.373C10.181,5.485 10.161,5.584 10.197,5.745C10.322,6.304 10.425,6.867 10.526,7.432C10.599,7.845 10.653,8.262 10.715,8.678L10.715,8.96C10.762,10.191 10.811,11.423 10.86,12.654C10.866,12.692 10.877,12.73 10.892,12.767C11.023,12.802 11.16,12.833 11.293,12.876C12.155,13.153 12.708,13.759 13.096,14.553C13.208,14.797 13.354,15.024 13.529,15.228C13.732,15.452 13.948,15.427 14.178,15.228C14.428,15.008 14.6,14.714 14.669,14.389C14.807,13.762 14.923,13.128 15.026,12.494C15.174,11.581 15.311,10.667 15.435,9.751C15.528,9.066 15.592,8.378 15.67,7.691C15.738,7.064 15.806,6.437 15.859,5.804C15.892,5.349 15.91,4.893 15.932,4.437ZM9.296,7.337C9.206,6.866 9.15,6.387 9.016,5.926C8.86,5.382 8.541,5.228 7.997,5.361C7.802,5.404 7.613,5.473 7.435,5.565C6.789,5.917 6.133,6.26 5.514,6.657C4.194,7.501 3.26,8.686 2.636,10.118C2.387,10.69 2.213,11.286 2.216,11.913C2.201,12.357 2.279,12.451 2.705,12.411C2.902,12.392 3.094,12.336 3.271,12.247C3.511,12.127 3.511,12.012 3.322,11.824C3.267,11.769 3.222,11.704 3.171,11.643C3.275,11.453 3.406,11.408 3.595,11.457C4.144,11.589 4.606,11.853 4.919,12.319C5.234,12.771 5.516,13.245 5.764,13.737C6.225,14.698 6.631,15.686 7.073,16.657C7.291,17.137 7.52,17.614 7.778,18.075C7.978,18.438 8.391,18.628 8.797,18.545C9.209,18.476 9.392,18.19 9.458,17.819C9.535,17.442 9.583,17.058 9.6,16.673C9.619,15.183 9.623,13.694 9.611,12.205C9.606,11.372 9.584,10.538 9.533,9.707C9.477,8.918 9.375,8.127 9.296,7.334L9.296,7.337Z" style="fill:rgb(78,64,64);fill-rule:nonzero;"/>
        <path d="M7.551,19.682C7.906,19.791 8.256,19.917 8.62,20.001C9.149,20.118 9.82,19.976 10.151,19.304C10.465,18.666 10.684,18.006 10.725,17.297C10.765,16.608 10.773,15.916 10.803,15.226C10.817,14.912 10.851,14.599 10.878,14.256C11.371,14.403 11.781,14.748 12.009,15.209C12.148,15.492 12.263,15.786 12.354,16.087C12.511,16.581 12.676,16.724 13.191,16.793C13.652,16.869 14.122,16.873 14.585,16.804C14.889,16.752 15.088,16.618 15.183,16.338C15.442,15.576 15.704,14.815 15.939,14.046C16.044,13.702 16.085,13.341 16.16,12.986C16.181,12.89 16.222,12.796 16.283,12.612C16.44,12.828 16.561,12.963 16.639,13.122C16.711,13.295 16.769,13.473 16.815,13.655C17.05,14.39 17.442,14.497 18.147,14.342C19.442,14.058 20.313,13.23 20.928,12.103C21.427,11.188 21.84,10.228 22.163,9.237C22.2,9.142 22.243,9.048 22.292,8.958C22.857,8.927 23.149,9.471 23.056,10.013C22.876,11.001 22.566,11.96 22.134,12.865C21.855,13.466 21.559,14.071 21.181,14.614C20.596,15.452 19.827,16.062 18.751,16.161C18.568,16.189 18.387,16.231 18.21,16.288C17.764,16.404 17.492,16.691 17.348,17.128C17.254,17.413 17.152,17.71 16.986,17.957C16.735,18.329 16.332,18.464 15.889,18.485C15.419,18.507 14.953,18.51 14.49,18.563C14.029,18.611 13.612,18.856 13.346,19.235C13.318,19.272 13.294,19.313 13.274,19.355C12.845,20.254 12.031,20.641 11.158,20.967C10.764,21.117 10.329,21.124 9.93,20.987C9.151,20.733 8.412,20.369 7.736,19.907C7.664,19.84 7.602,19.765 7.551,19.682ZM2.116,14.118C2.412,14.128 2.701,14.032 2.931,13.846C2.985,13.802 3.046,13.767 3.101,13.723C3.592,13.344 3.876,13.384 4.231,13.907C4.474,14.251 4.697,14.609 4.9,14.978C5.226,15.599 5.52,16.238 5.826,16.869C5.841,16.913 5.851,16.959 5.855,17.005C5.737,16.938 5.626,16.859 5.523,16.77C4.7,15.926 3.785,15.178 2.793,14.54C2.571,14.397 2.343,14.259 2.116,14.118Z" style="fill-opacity:0.3;fill-rule:nonzero;"/>
        <path d="M5.858,17.007L5.945,17.15L5.858,17.007ZM5.927,17.148L6.014,17.286L5.927,17.148Z" style="fill:rgb(1,123,143);fill-rule:nonzero;"/>
        <path d="M7.202,19.462L7.335,19.562L7.202,19.462ZM7.337,19.549L7.437,19.631L7.337,19.549Z" style="fill:rgb(226,123,17);fill-rule:nonzero;"/>
        <path d="M9.296,7.334C9.374,8.127 9.477,8.918 9.531,9.711C9.584,10.542 9.61,11.376 9.61,12.209C9.62,13.7 9.616,15.189 9.599,16.677C9.582,17.062 9.534,17.445 9.456,17.823C9.39,18.194 9.208,18.48 8.795,18.549C8.389,18.632 7.976,18.442 7.776,18.079C7.522,17.618 7.293,17.138 7.071,16.661C6.63,15.69 6.224,14.702 5.763,13.741C5.515,13.249 5.232,12.775 4.917,12.323C4.604,11.853 4.138,11.59 3.594,11.461C3.408,11.415 3.274,11.457 3.169,11.647C3.22,11.708 3.265,11.773 3.32,11.828C3.51,12.018 3.51,12.131 3.27,12.251C3.092,12.34 2.9,12.395 2.703,12.415C2.278,12.455 2.199,12.361 2.214,11.917C2.324,11.822 2.467,11.747 2.535,11.629C2.84,11.103 3.125,10.566 3.414,10.032C3.594,9.698 3.85,9.616 4.158,9.84C4.396,10.029 4.622,10.231 4.836,10.447C5.284,10.867 5.782,11.091 6.396,10.839C6.833,10.662 7.216,10.375 7.508,10.005C8.176,9.164 8.835,8.314 9.296,7.334ZM15.932,4.437C15.907,4.893 15.892,5.349 15.854,5.804C15.8,6.431 15.732,7.063 15.665,7.692C15.592,8.379 15.525,9.067 15.43,9.751C15.306,10.668 15.17,11.582 15.021,12.495C14.918,13.129 14.802,13.762 14.664,14.39C14.594,14.715 14.422,15.009 14.173,15.228C13.943,15.43 13.727,15.454 13.524,15.228C13.348,15.025 13.202,14.798 13.09,14.554C12.705,13.76 12.15,13.154 11.288,12.877C11.154,12.834 11.018,12.803 10.886,12.767C10.872,12.731 10.861,12.693 10.854,12.654C10.806,11.423 10.758,10.192 10.71,8.961L10.71,8.678C11.187,8.983 11.446,8.972 11.825,8.588C12.563,7.85 13.291,7.103 14.009,6.348C14.475,5.858 14.913,5.34 15.38,4.851C15.538,4.688 15.747,4.574 15.932,4.437ZM21.945,5.293C21.945,5.993 21.752,6.655 21.541,7.313C21.129,8.582 20.622,9.819 20.027,11.013C19.807,11.462 19.504,11.875 19.201,12.274C18.924,12.645 18.507,12.887 18.047,12.942C17.819,12.975 17.724,12.913 17.641,12.728C17.541,12.504 17.434,12.281 17.312,12.068C17.156,11.798 16.951,11.57 16.65,11.464C16.451,11.394 16.415,11.27 16.444,11.085C16.522,10.541 16.591,9.995 16.664,9.451C16.726,9.002 16.788,8.553 16.851,8.102C16.9,8.301 16.929,8.517 17.234,8.628C17.312,8.53 17.391,8.41 17.485,8.307C18.053,7.698 18.678,7.145 19.352,6.656C20.149,6.078 20.987,5.569 21.945,5.293Z" style="fill:rgb(216,168,124);fill-rule:nonzero;"/>
        <path d="M9.296,7.334C8.835,8.314 8.176,9.164 7.51,10.005C7.218,10.375 6.835,10.663 6.398,10.84C5.783,11.09 5.286,10.867 4.837,10.448C4.624,10.232 4.397,10.029 4.159,9.841C3.851,9.617 3.596,9.699 3.416,10.033C3.126,10.567 2.842,11.104 2.537,11.629C2.469,11.748 2.325,11.823 2.216,11.918C2.216,11.285 2.387,10.692 2.636,10.12C3.263,8.687 4.194,7.503 5.514,6.655C6.133,6.256 6.789,5.913 7.435,5.565C7.612,5.473 7.8,5.405 7.994,5.362C8.543,5.228 8.856,5.383 9.013,5.927C9.15,6.384 9.206,6.864 9.296,7.334ZM15.932,4.437C15.747,4.574 15.54,4.688 15.383,4.852C14.913,5.341 14.478,5.859 14.012,6.35C13.292,7.105 12.566,7.852 11.835,8.59C11.455,8.974 11.197,8.982 10.719,8.68C10.657,8.265 10.603,7.848 10.53,7.434C10.429,6.87 10.326,6.306 10.201,5.747C10.165,5.59 10.185,5.488 10.3,5.376C11.534,4.177 12.966,3.326 14.656,2.938C14.909,2.889 15.167,2.872 15.424,2.887C15.725,2.896 15.922,3.057 15.946,3.358C15.973,3.713 15.939,4.076 15.932,4.437ZM21.945,5.293C20.986,5.569 20.147,6.077 19.348,6.656C18.674,7.145 18.05,7.698 17.482,8.308C17.386,8.41 17.308,8.53 17.232,8.628C16.924,8.518 16.898,8.302 16.848,8.102C16.929,7.225 16.999,6.348 17.086,5.471C17.11,5.36 17.172,5.261 17.261,5.19C17.775,4.739 18.392,4.485 19.042,4.306C19.669,4.134 20.296,4.006 20.95,4.021L21.021,4.021C21.799,4.049 22.008,4.354 21.99,5.087C21.982,5.157 21.967,5.226 21.945,5.293Z" style="fill:rgb(252,227,194);fill-rule:nonzero;"/>
    </g>
</svg>
