<?xml version="1.0" encoding="UTF-8" standalone="no"?>
<!DOCTYPE svg PUBLIC "-//W3C//DTD SVG 1.1//EN" "http://www.w3.org/Graphics/SVG/1.1/DTD/svg11.dtd">
<svg width="100%" height="100%" viewBox="0 0 32 32" version="1.1" xmlns="http://www.w3.org/2000/svg" xmlns:xlink="http://www.w3.org/1999/xlink" xml:space="preserve" xmlns:serif="http://www.serif.com/" style="fill-rule:evenodd;clip-rule:evenodd;stroke-linejoin:round;stroke-miterlimit:2;">
    <g transform="matrix(1.4128,0,0,1.4128,-0.919761,-0.637123)">
        <path d="M23.168,10.277C23.15,11.074 22.854,11.669 22.509,12.227C21.986,13.08 21.323,13.84 20.55,14.476C20.171,14.789 19.745,15.035 19.25,15.052C18.892,15.064 18.529,14.978 18.17,14.928C16.681,14.708 15.174,14.638 13.672,14.72C13.086,14.756 12.496,14.786 11.911,14.798C9.995,14.838 8.091,15.112 6.242,15.615C5.699,15.762 5.145,15.88 4.609,16.045C4.064,16.233 3.46,16.119 3.021,15.746C2.828,15.593 2.648,15.424 2.484,15.239C2.038,14.727 1.585,14.213 1.166,13.676C0.996,13.454 0.869,13.201 0.792,12.932C0.672,12.516 0.837,12.133 1.106,11.82C1.411,11.462 1.622,11.034 1.72,10.574C1.772,10.338 1.89,10.111 1.991,9.886C2.038,9.781 2.094,9.651 2.185,9.599C2.478,9.434 2.561,9.138 2.708,8.873C3.302,7.804 4.046,6.858 5.042,6.13C5.496,5.787 6.056,5.612 6.624,5.637C7.376,5.663 8.13,5.637 8.881,5.666C10.058,5.708 11.233,5.546 12.354,5.188C12.835,5.037 13.328,4.918 13.821,4.811C14.49,4.667 15.153,4.777 15.811,4.912C17.23,5.202 18.504,5.811 19.658,6.673C20.476,7.284 21.289,7.905 22.088,8.548C22.376,8.783 22.618,9.08 22.853,9.371C23.065,9.624 23.177,9.946 23.168,10.277ZM18.213,7.612L17.359,7.194L15.815,6.553C15.256,6.333 14.646,6.277 14.057,6.39L12.489,6.782C12.373,6.789 12.258,6.802 12.143,6.821C10.676,7.141 9.201,7.37 7.691,7.269C7.366,7.247 7.037,7.277 6.71,7.283C6.356,7.288 6.015,7.337 5.714,7.544C5.598,7.596 5.486,7.657 5.379,7.725C4.863,8.115 4.449,8.623 4.171,9.207C4.11,9.357 4.061,9.512 4.025,9.67C3.937,10.148 4.065,10.596 4.25,11.023C4.362,11.268 4.513,11.494 4.695,11.692C4.9,11.927 5.032,11.897 5.185,11.635C5.32,11.4 5.441,11.16 5.563,10.918C5.855,10.343 6.129,9.758 6.437,9.194C6.648,8.802 6.888,8.797 7.17,9.143C7.377,9.398 7.562,9.672 7.767,9.927C8.074,10.309 8.256,10.307 8.588,9.947C8.919,9.586 9.271,9.203 9.624,8.843C9.878,8.584 10.033,8.566 10.342,8.765C10.518,8.881 10.682,9.012 10.835,9.157C11.036,9.337 11.22,9.536 11.422,9.715C11.736,9.99 11.871,9.971 12.099,9.636C12.23,9.441 12.345,9.236 12.476,9.041C12.592,8.852 12.723,8.672 12.868,8.503C13.094,8.262 13.299,8.252 13.539,8.479C13.767,8.698 13.983,8.928 14.186,9.17C14.593,9.64 14.991,10.119 15.402,10.586C15.511,10.708 15.637,10.814 15.777,10.9C16.033,11.056 16.188,11.009 16.305,10.732C16.396,10.528 16.464,10.315 16.51,10.097C16.637,9.418 16.745,8.734 16.864,8.052C16.895,7.877 16.894,7.683 17.062,7.538C17.151,7.622 17.225,7.695 17.297,7.762L17.507,8.251C17.531,8.407 17.554,8.564 17.578,8.721C17.612,8.714 17.646,8.704 17.678,8.69C17.878,8.546 18.076,8.4 18.276,8.256C18.613,8.012 18.613,8.012 18.963,8.124C18.829,7.916 18.674,7.812 18.213,7.609L18.213,7.612ZM3.807,11.926L3.751,11.835C3.516,11.44 3.208,11.094 2.843,10.816C2.523,11.202 2.376,11.703 2.436,12.201C2.495,12.815 2.772,13.37 3.18,13.839C3.493,14.197 3.873,14.43 4.373,14.394C4.896,14.421 5.38,14.254 5.862,14.094C5.986,14.061 6.11,14.028 6.234,13.993C8.682,13.299 11.163,12.854 13.721,12.974C14.061,12.99 14.401,12.982 14.74,12.985C15.817,13.029 16.894,13.072 17.971,13.115C18.005,13.112 18.04,13.105 18.073,13.093L18.326,13.093C18.734,13.067 19.142,13.048 19.548,13.015C19.971,12.978 20.296,12.754 20.567,12.441C20.944,11.989 21.241,11.476 21.446,10.925C21.484,10.793 21.511,10.659 21.528,10.523C21.288,10.627 21.116,10.675 20.975,10.769C20.73,10.929 20.498,11.109 20.281,11.306C19.893,11.664 19.768,11.645 19.561,11.149C19.475,10.943 19.404,10.729 19.313,10.527C19.224,10.323 19.117,10.127 18.992,9.943C18.748,9.606 18.473,9.561 18.146,9.817C17.791,10.093 17.478,10.424 17.356,10.894C17.213,11.417 16.969,11.908 16.639,12.338C16.455,12.585 16.345,12.614 16.068,12.473C15.897,12.396 15.738,12.295 15.594,12.173C15.115,11.723 14.654,11.258 14.184,10.799C14.008,10.626 13.847,10.433 13.651,10.289C13.387,10.095 13.223,10.125 13.006,10.367C12.843,10.552 12.704,10.759 12.542,10.943C12.228,11.302 11.986,11.335 11.589,11.069C11.386,10.932 11.197,10.765 11.004,10.617C10.901,10.538 10.79,10.476 10.683,10.407L10.502,10.309C10.175,10.099 10.027,10.106 9.769,10.369C9.44,10.704 9.122,11.05 8.791,11.382C8.482,11.69 8.338,11.695 7.998,11.451C7.894,11.372 7.797,11.289 7.694,11.211C7.201,10.835 6.982,10.867 6.624,11.368C6.569,11.446 6.515,11.524 6.468,11.603C6.168,12.079 5.872,12.558 5.571,13.035C5.395,13.315 5.229,13.376 4.963,13.187C4.73,13.011 4.518,12.81 4.329,12.588C4.141,12.382 3.981,12.151 3.808,11.932L3.807,11.926ZM19.136,8.277C19.28,8.434 19.413,8.577 19.543,8.723C19.738,8.941 19.917,9.174 20.128,9.375C20.338,9.577 20.487,9.579 20.755,9.399C20.098,8.764 19.437,8.302 19.136,8.277Z" style="fill:rgb(77,64,64);fill-rule:nonzero;"/>
        <path d="M8.103,18.837C8.177,18.687 8.201,18.594 8.26,18.529C8.965,17.725 9.696,16.952 10.584,16.34C11.019,16.04 11.446,15.897 11.995,16.003C12.821,16.171 13.63,16.414 14.412,16.73C14.778,16.873 15.034,17.152 15.269,17.443C15.452,17.687 15.622,17.941 15.778,18.203C15.877,18.36 15.873,18.36 15.8,18.638C15.478,18.554 15.149,18.482 14.831,18.381C13.587,17.982 12.277,17.833 10.975,17.942C10.476,17.982 9.991,18.227 9.506,18.395C9.174,18.509 8.854,18.66 8.523,18.779C8.414,18.819 8.288,18.81 8.103,18.837Z" style="fill-opacity:0.3;fill-rule:nonzero;"/>
        <path d="M14.744,12.979C14.405,12.979 14.064,12.984 13.725,12.968C11.167,12.851 8.686,13.296 6.238,13.987C6.114,14.022 5.99,14.054 5.866,14.088C5.885,13.937 5.906,13.786 5.923,13.635C6.023,12.739 6.411,11.979 7.015,11.323C7.151,11.176 7.283,11.174 7.392,11.346C7.555,11.602 7.679,11.881 7.826,12.148C7.972,12.415 8.109,12.66 8.263,12.908C8.305,12.976 8.396,13.014 8.518,13.106C8.679,12.738 8.817,12.418 8.961,12.1C9.201,11.566 9.44,11.031 9.83,10.581C10.012,10.37 10.222,10.244 10.505,10.306L10.683,10.404C10.753,10.547 10.819,10.694 10.896,10.833C11.154,11.294 11.411,11.755 11.676,12.21C11.75,12.336 11.817,12.492 12.049,12.469C12.103,12.378 12.172,12.272 12.229,12.156C12.41,11.8 12.574,11.436 12.767,11.087C12.873,10.905 13,10.737 13.147,10.586C13.333,10.39 13.423,10.404 13.605,10.61C13.657,10.674 13.706,10.741 13.751,10.81C14.211,11.466 14.548,12.201 14.744,12.979Z" style="fill:rgb(227,222,222);fill-rule:nonzero;"/>
        <path d="M17.295,7.759L17.06,7.535C16.891,7.68 16.892,7.874 16.862,8.049C16.742,8.731 16.635,9.414 16.507,10.094C16.462,10.312 16.393,10.525 16.303,10.729C16.186,11.006 16.031,11.055 15.775,10.896C15.635,10.811 15.508,10.705 15.399,10.583C14.988,10.113 14.591,9.637 14.184,9.167C13.982,8.923 13.767,8.69 13.541,8.468C13.3,8.242 13.096,8.251 12.869,8.493C12.725,8.662 12.593,8.842 12.477,9.031C12.346,9.226 12.231,9.431 12.1,9.626C11.873,9.964 11.734,9.983 11.424,9.704C11.222,9.526 11.038,9.327 10.837,9.146C10.684,9.002 10.519,8.871 10.344,8.755C10.034,8.56 9.88,8.577 9.626,8.833C9.273,9.193 8.931,9.565 8.589,9.936C8.247,10.308 8.076,10.299 7.769,9.917C7.562,9.661 7.377,9.387 7.171,9.133C6.889,8.787 6.649,8.795 6.439,9.184C6.131,9.751 5.856,10.336 5.565,10.908C5.442,11.15 5.322,11.391 5.186,11.625C5.029,11.887 4.902,11.913 4.697,11.682C4.514,11.483 4.364,11.257 4.251,11.012C4.067,10.586 3.938,10.138 4.027,9.66C4.099,9.868 4.162,10.081 4.246,10.287C4.371,10.588 4.507,10.886 4.81,11.06C4.852,11.03 4.894,11.016 4.906,10.989C5.199,10.35 5.507,9.718 5.775,9.068C5.992,8.575 5.97,8.01 5.715,7.536C6.016,7.329 6.358,7.279 6.711,7.275C6.681,8.16 7.114,8.822 7.741,9.382C8.022,9.633 8.184,9.622 8.485,9.388C8.551,9.339 8.611,9.282 8.664,9.219C8.948,8.861 9.226,8.498 9.51,8.14C9.599,8.027 9.7,7.925 9.799,7.814C10.258,8.186 10.675,8.527 11.096,8.863C11.427,9.128 11.708,9.106 11.982,8.781C12.186,8.539 12.382,8.29 12.564,8.032C12.821,7.669 12.86,7.298 12.557,6.935C12.528,6.886 12.505,6.833 12.491,6.778L14.058,6.386C14.047,6.442 14.025,6.495 13.995,6.543C13.572,6.993 13.61,7.483 13.899,7.967C14.174,8.43 14.475,8.877 14.8,9.305C14.986,9.533 15.206,9.729 15.454,9.885C15.706,10.055 15.895,9.952 15.956,9.65C15.989,9.502 16.01,9.351 16.02,9.199C16.068,8.308 15.999,7.416 15.816,6.543L17.36,7.184L17.295,7.759Z" style="fill:rgb(174,162,181);fill-rule:nonzero;"/>
        <path d="M14.744,12.979C14.547,12.204 14.21,11.471 13.751,10.816C13.706,10.747 13.657,10.68 13.605,10.617C13.423,10.41 13.333,10.396 13.147,10.592C13,10.743 12.873,10.911 12.767,11.093C12.574,11.442 12.41,11.806 12.229,12.162C12.172,12.275 12.103,12.381 12.049,12.476C11.813,12.498 11.75,12.343 11.676,12.216C11.411,11.761 11.154,11.3 10.896,10.839C10.818,10.7 10.753,10.553 10.683,10.411C10.79,10.48 10.901,10.544 11.004,10.62C11.201,10.768 11.386,10.933 11.589,11.072C11.986,11.339 12.225,11.307 12.542,10.946C12.704,10.761 12.843,10.554 13.006,10.371C13.223,10.128 13.387,10.099 13.651,10.292C13.847,10.436 14.008,10.629 14.184,10.802C14.654,11.261 15.115,11.726 15.594,12.176C15.738,12.298 15.897,12.399 16.068,12.477C16.345,12.617 16.455,12.589 16.639,12.341C16.97,11.91 17.213,11.418 17.356,10.894C17.478,10.424 17.787,10.092 18.149,9.808C18.476,9.552 18.751,9.596 18.995,9.933C19.12,10.118 19.228,10.313 19.316,10.518C19.41,10.719 19.478,10.933 19.564,11.139C19.771,11.635 19.896,11.654 20.284,11.296C20.501,11.099 20.733,10.92 20.978,10.759C21.119,10.665 21.291,10.617 21.531,10.513C21.514,10.649 21.487,10.784 21.449,10.915C21.244,11.467 20.947,11.98 20.57,12.432C20.3,12.745 19.975,12.969 19.551,13.006C19.145,13.042 18.737,13.06 18.33,13.084C18.373,12.976 18.408,12.864 18.462,12.761C18.706,12.302 18.812,11.783 18.767,11.265C18.729,10.832 18.62,10.422 18.335,10.078C17.275,10.746 17.254,12.292 18.076,13.084C18.043,13.095 18.008,13.102 17.974,13.105C16.897,13.065 15.821,13.023 14.744,12.979Z" style="fill:rgb(173,161,181);fill-rule:nonzero;"/>
        <path d="M12.488,6.778C12.503,6.833 12.525,6.886 12.555,6.935C12.857,7.301 12.819,7.672 12.562,8.032C12.379,8.29 12.183,8.539 11.98,8.781C11.706,9.106 11.425,9.128 11.093,8.863C10.672,8.527 10.255,8.186 9.797,7.814C9.698,7.925 9.597,8.027 9.508,8.14C9.224,8.498 8.946,8.861 8.661,9.219C8.609,9.282 8.549,9.339 8.483,9.388C8.182,9.623 8.02,9.633 7.739,9.382C7.112,8.822 6.678,8.16 6.709,7.275C7.037,7.269 7.365,7.238 7.69,7.26C9.2,7.362 10.675,7.132 12.143,6.812C12.257,6.795 12.373,6.783 12.488,6.778Z" style="fill:rgb(228,223,222);fill-rule:nonzero;"/>
        <path d="M15.815,6.551C15.998,7.423 16.066,8.316 16.018,9.207C16.008,9.359 15.987,9.509 15.955,9.658C15.894,9.957 15.705,10.059 15.452,9.893C15.205,9.736 14.984,9.541 14.799,9.313C14.473,8.884 14.172,8.438 13.897,7.975C13.608,7.491 13.571,7 13.994,6.551C14.024,6.502 14.045,6.449 14.057,6.394C14.646,6.279 15.255,6.333 15.815,6.551Z" style="fill:rgb(228,223,223);fill-rule:nonzero;"/>
        <path d="M10.502,10.309C10.215,10.248 10.01,10.373 9.827,10.584C9.436,11.034 9.2,11.569 8.958,12.103C8.815,12.417 8.677,12.741 8.515,13.109C8.394,13.017 8.303,12.979 8.261,12.911C8.104,12.663 7.964,12.407 7.823,12.151C7.682,11.896 7.552,11.603 7.389,11.349C7.28,11.177 7.149,11.179 7.013,11.326C6.409,11.982 6.021,12.742 5.92,13.638C5.903,13.789 5.883,13.94 5.864,14.091C5.378,14.248 4.894,14.418 4.375,14.391C4.397,14.126 4.468,13.851 4.427,13.596C4.382,13.314 4.234,13.047 4.13,12.774C4.027,12.502 3.916,12.209 3.81,11.927C3.982,12.147 4.143,12.377 4.33,12.583C4.519,12.805 4.732,13.006 4.964,13.183C5.231,13.371 5.396,13.31 5.572,13.03C5.873,12.553 6.17,12.074 6.469,11.598C6.519,11.52 6.573,11.441 6.626,11.363C6.983,10.864 7.203,10.832 7.696,11.206C7.798,11.284 7.896,11.37 8,11.446C8.34,11.693 8.483,11.686 8.792,11.377C9.124,11.045 9.441,10.699 9.77,10.364C10.032,10.11 10.177,10.099 10.502,10.309Z" style="fill:rgb(174,162,181);fill-rule:nonzero;"/>
        <path d="M3.808,11.927C3.913,12.209 4.02,12.492 4.129,12.774C4.232,13.047 4.38,13.314 4.426,13.596C4.467,13.851 4.395,14.126 4.373,14.391C3.873,14.427 3.489,14.194 3.18,13.836C2.772,13.366 2.495,12.812 2.436,12.198C2.377,11.701 2.524,11.202 2.843,10.816C3.208,11.094 3.516,11.44 3.751,11.835L3.807,11.923L3.808,11.927Z" style="fill:rgb(227,222,221);fill-rule:nonzero;"/>
        <path d="M5.713,7.54C5.968,8.015 5.99,8.58 5.772,9.073C5.505,9.722 5.197,10.355 4.903,10.994C4.891,11.021 4.85,11.034 4.808,11.064C4.504,10.891 4.369,10.594 4.243,10.291C4.159,10.088 4.097,9.874 4.025,9.664C4.061,9.506 4.109,9.351 4.17,9.201C4.448,8.618 4.863,8.11 5.378,7.721C5.485,7.653 5.597,7.592 5.713,7.54Z" style="fill:rgb(227,222,222);fill-rule:nonzero;"/>
        <path d="M18.076,13.089C17.255,12.296 17.276,10.751 18.336,10.083C18.621,10.427 18.728,10.837 18.768,11.27C18.813,11.787 18.707,12.307 18.463,12.766C18.41,12.868 18.373,12.98 18.33,13.089L18.076,13.089Z" style="fill:rgb(228,223,222);fill-rule:nonzero;"/>
        <path d="M17.295,7.759L17.359,7.189L18.213,7.607C18.035,8.115 17.899,8.234 17.507,8.247C17.435,8.086 17.365,7.923 17.295,7.759Z" style="fill:rgb(226,221,220);fill-rule:nonzero;"/>
        <path d="M19.136,8.277C19.438,8.302 20.098,8.764 20.757,9.399C20.487,9.579 20.348,9.588 20.13,9.375C19.912,9.163 19.738,8.941 19.545,8.723C19.413,8.577 19.28,8.433 19.136,8.277Z" style="fill:rgb(169,157,176);fill-rule:nonzero;"/>
        <path d="M17.505,8.25C17.902,8.237 18.035,8.117 18.21,7.609C18.672,7.812 18.826,7.918 18.958,8.126C18.608,8.014 18.608,8.014 18.271,8.258C18.072,8.403 17.873,8.548 17.674,8.693C17.641,8.706 17.608,8.716 17.573,8.723C17.556,8.562 17.529,8.406 17.505,8.25Z" style="fill:rgb(171,159,178);fill-rule:nonzero;"/>
        <path d="M3.826,11.935L3.754,11.835L3.826,11.935Z" style="fill:rgb(174,162,181);fill-rule:nonzero;"/>
    </g>
</svg>
