<?xml version="1.0" encoding="UTF-8" standalone="no"?>
<!DOCTYPE svg PUBLIC "-//W3C//DTD SVG 1.1//EN" "http://www.w3.org/Graphics/SVG/1.1/DTD/svg11.dtd">
<svg width="100%" height="100%" viewBox="0 0 32 32" version="1.1" xmlns="http://www.w3.org/2000/svg" xmlns:xlink="http://www.w3.org/1999/xlink" xml:space="preserve" xmlns:serif="http://www.serif.com/" style="fill-rule:evenodd;clip-rule:evenodd;stroke-linejoin:round;stroke-miterlimit:2;">
    <g transform="matrix(1.34814,0,0,1.34814,-2.91267,-0.957053)">
        <path d="M15.208,11.678C13.413,11.464 11.881,10.763 10.759,9.29C10.535,8.996 10.283,8.726 10.041,8.445C9.327,7.618 8.948,7.525 7.943,7.983C6.956,8.432 6.099,9.122 5.45,9.99C5.384,10.083 5.3,10.162 5.203,10.223C5.113,9.811 5.141,9.408 5.324,9.056C5.99,7.776 6.939,6.761 8.269,6.155C8.55,6.034 8.849,5.957 9.153,5.926C9.701,5.862 10.198,6.016 10.519,6.49C10.801,6.906 11.083,7.339 11.28,7.799C12.04,9.567 13.456,10.298 15.283,10.412C16.341,10.485 17.403,10.313 18.384,9.909C19.759,9.338 20.225,8.028 19.398,6.582C19.246,6.318 19.026,6.141 18.693,6.212C18.36,6.283 18.22,6.528 18.205,6.834C18.186,7.201 18.2,7.571 18.214,7.939C18.246,8.734 17.861,9.173 17.062,9.188C16.1,9.206 15.36,8.785 14.807,7.999C13.193,5.696 14.416,2.963 16.117,1.778C17.886,0.546 21.353,0.361 23.271,3.169C24.553,5.044 25.111,7.097 25.08,9.353C25.05,11.588 24.216,13.524 23,15.335C21.409,17.705 19.214,19.305 16.587,20.353C16.431,20.416 16.277,20.485 16.122,20.55C16.06,20.566 15.997,20.576 15.938,20.596C13.721,21.366 11.442,21.694 9.109,21.413C8.141,21.296 7.19,21.022 6.238,20.793C5.865,20.704 5.562,20.469 5.434,20.089C5.064,18.991 4.704,17.887 4.354,16.779C4.283,16.559 4.269,16.321 4.229,16.091L4.328,16.052C4.454,16.252 4.582,16.45 4.706,16.651C5.099,17.285 5.461,17.947 5.891,18.557C6.319,19.19 6.995,19.612 7.752,19.719C8.42,19.817 9.086,19.935 9.757,19.992C11.492,20.138 13.191,19.916 14.856,19.416C16.532,18.964 18.101,18.181 19.47,17.113C21.941,15.184 23.577,12.747 23.882,9.552C23.991,8.414 23.832,7.266 23.418,6.2C23.098,5.113 22.493,4.13 21.668,3.352C20.771,2.507 19.711,2.15 18.477,2.278C16.332,2.499 14.833,4.806 15.525,6.845C15.652,7.217 15.854,7.527 16.238,7.682C16.468,7.737 16.697,7.835 16.927,7.84C17.26,7.846 17.375,7.659 17.279,7.339C17.218,7.14 17.131,6.947 17.051,6.753C16.821,6.19 16.927,5.854 17.437,5.519C17.882,5.236 18.387,5.061 18.911,5.009C19.401,5.05 19.841,5.202 20.171,5.588C21.598,7.26 21.266,10.166 18.935,11.098C17.751,11.566 16.478,11.765 15.208,11.678Z" style="fill:rgb(77,64,64);fill-rule:nonzero;"/>
        <path d="M14.854,19.413C13.19,19.913 11.491,20.135 9.756,19.989C9.084,19.932 8.417,19.814 7.75,19.716C6.995,19.612 6.318,19.192 5.889,18.562C5.459,17.952 5.097,17.294 4.704,16.656C4.58,16.455 4.452,16.257 4.326,16.057L4.227,16.096C4.267,16.326 4.282,16.564 4.352,16.784C4.702,17.89 5.063,18.993 5.432,20.094C5.559,20.473 5.862,20.707 6.236,20.798C7.188,21.027 8.139,21.301 9.107,21.418C11.44,21.7 13.718,21.371 15.935,20.601C15.995,20.581 16.058,20.571 16.119,20.555C15.974,20.719 15.838,20.891 15.682,21.043C15.238,21.475 14.787,21.9 14.338,22.328C13.923,22.67 13.527,23.037 13.09,23.348C11.603,24.405 10.038,24.553 8.439,23.63C6.916,22.738 5.51,21.661 4.252,20.423C4.229,19.992 4.252,19.551 4.168,19.133C4.098,18.781 3.903,18.455 3.754,18.122C3.524,17.61 3.242,17.122 3.072,16.595C2.834,15.853 3.084,15.123 3.361,14.444C3.546,13.988 3.854,13.565 4.177,13.188C4.482,12.831 4.927,12.714 5.392,12.874C5.69,12.976 5.975,13.116 6.263,13.246C7.202,13.673 8.131,14.126 9.082,14.525C10.356,15.059 11.704,15.312 13.074,15.459C13.253,15.469 13.432,15.469 13.611,15.459L13.675,15.561C14.127,16.186 14.798,16.457 15.499,16.671C15.839,16.776 16.188,16.852 16.544,16.943C16.195,17.26 15.861,17.533 15.557,17.841C15.134,18.272 14.876,18.793 14.854,19.413Z" style="fill-opacity:0.3;fill-rule:nonzero;"/>
        <path d="M13.675,15.559L13.611,15.457C13.685,15.291 13.721,15.091 13.838,14.967C14.581,14.186 15.507,13.601 16.533,13.266C16.613,13.239 16.694,13.216 16.773,13.19C16.79,13.184 16.802,13.167 16.829,13.144C16.176,12.774 15.482,12.454 15.208,11.678C16.477,11.764 17.749,11.566 18.931,11.098C21.262,10.166 21.595,7.26 20.168,5.588C19.837,5.202 19.398,5.05 18.908,5.009C18.271,4.82 17.593,4.817 16.954,5C16.794,5.051 16.648,5.138 16.527,5.254C16.095,5.655 16.028,6.155 16.181,6.701C16.272,7.023 16.402,7.342 16.238,7.68C15.854,7.525 15.652,7.215 15.525,6.842C14.833,4.804 16.332,2.497 18.477,2.275C19.711,2.148 20.771,2.508 21.668,3.35C22.494,4.128 23.098,5.112 23.418,6.201C23.397,6.58 23.389,6.959 23.353,7.336C23.125,9.656 22.09,11.532 20.225,12.934C18.537,14.202 16.594,14.885 14.558,15.342C14.263,15.41 13.97,15.487 13.675,15.559Z" style="fill:rgb(252,227,194);fill-rule:nonzero;"/>
        <path d="M13.675,15.559C13.97,15.488 14.263,15.41 14.558,15.344C16.594,14.887 18.537,14.205 20.225,12.936C22.09,11.534 23.125,9.658 23.353,7.338C23.389,6.961 23.397,6.582 23.418,6.203C23.832,7.269 23.991,8.417 23.882,9.555C23.577,12.749 21.941,15.189 19.47,17.116C18.1,18.182 16.531,18.963 14.854,19.413C14.876,18.793 15.136,18.272 15.559,17.838C15.86,17.531 16.193,17.257 16.546,16.941C16.193,16.85 15.841,16.774 15.501,16.669C14.799,16.455 14.127,16.184 13.675,15.559Z" style="fill:rgb(216,168,125);fill-rule:nonzero;"/>
        <path d="M16.238,7.682C16.402,7.345 16.272,7.026 16.181,6.703C16.028,6.157 16.095,5.657 16.527,5.256C16.648,5.14 16.794,5.053 16.954,5.002C17.592,4.818 18.27,4.82 18.908,5.009C18.383,5.061 17.878,5.236 17.434,5.519C16.923,5.854 16.817,6.189 17.048,6.753C17.127,6.947 17.215,7.14 17.276,7.339C17.375,7.659 17.26,7.846 16.923,7.84C16.697,7.835 16.468,7.737 16.238,7.682Z" style="fill:rgb(215,167,124);fill-rule:nonzero;"/>
    </g>
</svg>
