<?xml version="1.0" encoding="UTF-8" standalone="no"?>
<!DOCTYPE svg PUBLIC "-//W3C//DTD SVG 1.1//EN" "http://www.w3.org/Graphics/SVG/1.1/DTD/svg11.dtd">
<svg width="100%" height="100%" viewBox="0 0 32 32" version="1.1" xmlns="http://www.w3.org/2000/svg" xmlns:xlink="http://www.w3.org/1999/xlink" xml:space="preserve" xmlns:serif="http://www.serif.com/" style="fill-rule:evenodd;clip-rule:evenodd;stroke-linejoin:round;stroke-miterlimit:2;">
    <g transform="matrix(1.22469,0,0,1.22469,2.22893,-0.900036)">
        <path d="M7.823,23.548C7.306,22.902 6.8,22.243 6.265,21.614C5.906,21.188 5.426,20.881 4.89,20.731C4.515,20.622 4.142,20.501 3.772,20.378C3.225,20.206 2.786,19.797 2.574,19.265C2.164,18.302 1.857,17.299 1.659,16.271C1.403,14.926 1.179,13.577 1.068,12.21C0.886,9.97 0.966,7.747 1.523,5.56C1.708,4.836 2.024,4.178 2.589,3.66C2.888,3.371 3.253,3.158 3.652,3.039C3.987,2.948 4.251,3.039 4.419,3.339C4.548,3.57 4.641,3.818 4.696,4.076C4.985,5.52 5.234,6.971 5.541,8.41C5.824,9.736 6.165,11.048 6.482,12.366L6.552,12.372C6.601,12.303 6.647,12.23 6.689,12.156C6.836,11.87 6.964,11.572 7.126,11.294C7.516,10.626 7.965,10.45 8.694,10.708C8.994,10.824 9.279,10.975 9.543,11.158C9.837,11.35 9.871,11.679 9.859,11.993C9.813,13.097 9.743,14.2 9.705,15.303C9.687,15.763 9.699,16.222 9.744,16.68C9.793,17.167 10.056,17.561 10.412,17.892C10.768,18.224 11.115,18.555 11.467,18.886C11.688,19.207 11.937,19.516 11.997,19.917C12.109,20.577 12.046,21.254 11.815,21.883C11.787,21.959 11.7,22.007 11.64,22.068C11.548,21.773 11.443,21.481 11.366,21.182C11.166,20.405 10.725,19.8 10.106,19.301C9.75,19.012 9.41,18.704 9.085,18.38C8.701,17.997 8.437,17.542 8.399,16.99C8.374,16.637 8.399,16.28 8.404,15.924C8.425,15.065 8.451,14.205 8.475,13.346C8.486,13.048 8.51,12.749 8.503,12.451C8.498,12.216 8.35,12.155 8.159,12.293C8.111,12.325 8.07,12.366 8.037,12.414C7.432,13.352 6.784,14.276 6.94,15.484C6.945,15.553 6.945,15.622 6.94,15.69C6.769,15.825 6.716,15.652 6.658,15.564C6.519,15.354 6.415,15.121 6.274,14.914C5.997,14.492 5.783,14.032 5.638,13.549C5.372,12.733 5.083,11.924 4.805,11.112C4.728,10.8 4.635,10.491 4.569,10.176C4.215,8.509 3.869,6.842 3.531,5.176C3.499,5.023 3.501,4.855 3.294,4.746C3.21,4.834 3.134,4.93 3.07,5.033C2.998,5.19 2.939,5.352 2.893,5.518C2.475,6.908 2.33,8.335 2.303,9.776C2.259,11.837 2.491,13.895 2.993,15.895C3.157,16.551 3.384,17.19 3.583,17.836C3.745,18.454 4.077,18.941 4.657,19.229C4.862,19.335 5.076,19.424 5.296,19.495C6.304,19.802 7.068,20.442 7.701,21.256C7.969,21.599 8.218,21.958 8.476,22.309C8.949,22.953 9.578,23.237 10.366,23.077C10.606,23.029 10.823,22.874 11.057,22.781C11.147,22.745 11.233,22.596 11.349,22.745C11.302,23.235 11.053,23.633 10.747,23.996C10.073,24.791 9.406,24.867 8.589,24.238C8.318,24.029 8.077,23.779 7.823,23.548ZM14.372,20.186C14.085,19.691 13.681,19.305 13.26,18.925C12.817,18.52 12.384,18.106 11.973,17.676C11.49,17.171 11.277,16.547 11.265,15.853C11.232,14.056 11.282,12.264 11.523,10.48C11.738,8.896 11.945,7.312 12.368,5.766C12.618,4.858 12.874,3.95 13.135,3.044C13.202,2.824 13.282,2.608 13.376,2.398C13.826,1.356 14.713,0.945 15.756,0.84C16.514,0.764 17.032,1.224 17.129,1.987C17.169,2.376 17.183,2.767 17.172,3.158C17.165,5.218 17.154,7.278 17.139,9.339C17.145,9.375 17.154,9.411 17.165,9.446C17.275,9.286 17.373,9.151 17.465,9.012C18.095,8.05 18.973,8.236 19.646,8.705C19.953,8.916 20.077,9.212 20.07,9.595C20.052,10.58 19.851,11.536 19.659,12.494C19.476,13.408 19.285,14.321 19.347,15.263C19.389,15.9 19.492,16.52 19.8,17.089C19.843,17.166 19.899,17.243 19.949,17.32C19.97,17.385 19.995,17.448 20.026,17.509C20.247,17.859 20.374,18.26 20.395,18.673C20.444,19.525 20.088,20.232 19.641,20.911C19.606,20.964 19.513,20.978 19.446,21.011C19.436,20.794 19.427,20.576 19.414,20.358C19.351,19.307 19.184,18.282 18.661,17.345C18.544,17.121 18.438,16.89 18.344,16.655C18.132,16.164 17.994,15.651 18.047,15.115C18.13,14.259 18.232,13.404 18.345,12.552C18.408,12.075 18.511,11.605 18.596,11.131C18.607,11.124 18.613,11.11 18.61,11.097L18.645,10.991C18.7,10.711 18.767,10.433 18.799,10.15C18.797,10.054 18.747,9.964 18.666,9.912C18.589,9.879 18.466,9.912 18.382,9.953C18.318,10.001 18.267,10.064 18.234,10.137C18.004,10.521 17.766,10.899 17.543,11.289C17.451,11.434 17.388,11.596 17.359,11.765C17.294,12.357 17.258,12.952 17.21,13.545L17.139,13.897L17.062,13.914C16.988,13.818 16.922,13.715 16.866,13.607C16.737,13.3 16.591,12.997 16.51,12.678C16.361,12.091 16.254,11.493 16.126,10.899C16.061,10.178 15.979,9.458 15.934,8.736C15.813,6.796 15.749,4.855 15.877,2.912C15.893,2.786 15.896,2.659 15.888,2.533C15.858,2.295 15.694,2.191 15.468,2.27C15.373,2.308 15.286,2.364 15.211,2.434C14.888,2.715 14.649,3.08 14.52,3.488C14.16,4.562 13.752,5.632 13.491,6.733C12.966,8.915 12.702,11.141 12.6,13.385C12.564,14.152 12.572,14.925 12.738,15.687L12.777,15.775C12.771,16.182 12.918,16.577 13.187,16.881C13.563,17.299 13.964,17.692 14.389,18.06C14.834,18.436 15.212,18.886 15.504,19.39C15.789,19.889 16.081,20.383 16.369,20.879C16.567,21.253 16.934,21.509 17.354,21.567C17.897,21.639 18.448,21.649 18.996,21.686C18.996,21.96 18.832,22.143 18.625,22.269C18.291,22.469 17.947,22.653 17.595,22.817C17.017,23.089 16.508,22.962 16.05,22.528C15.646,22.135 15.297,21.689 15.013,21.202C14.806,20.856 14.583,20.521 14.372,20.186Z" style="fill:rgb(79,64,63);fill-rule:nonzero;"/>
        <path d="M19.447,21.006C19.514,20.973 19.608,20.959 19.642,20.906C20.088,20.226 20.445,19.519 20.397,18.667C20.375,18.254 20.248,17.853 20.028,17.503C19.997,17.442 19.971,17.379 19.951,17.314C20.174,17.174 20.442,17.124 20.701,17.175C20.939,17.195 21.131,17.38 21.161,17.618C21.315,18.385 21.473,19.142 21.503,19.926C21.517,20.269 21.522,20.606 21.508,20.95C21.484,21.57 21.251,22.086 20.876,22.552C19.874,23.781 18.727,24.884 17.46,25.838C17.32,25.961 17.124,26.001 16.947,25.942C16.056,25.68 15.154,25.455 14.269,25.174C13.573,24.954 12.92,24.962 12.273,25.31C11.494,25.729 10.709,26.136 9.929,26.554C9.569,26.747 9.403,26.751 9.143,26.449C8.874,26.136 8.629,25.802 8.413,25.451C8.209,25.12 8.075,24.745 7.875,24.409C7.704,24.118 7.634,23.847 7.824,23.546C8.078,23.776 8.318,24.027 8.592,24.237C9.406,24.867 10.073,24.791 10.745,23.998C11.052,23.636 11.3,23.237 11.348,22.747L11.636,22.064C11.695,22.002 11.783,21.952 11.811,21.878C12.041,21.25 12.104,20.572 11.992,19.912C11.933,19.512 11.685,19.202 11.462,18.882C11.647,18.823 11.834,18.769 12.016,18.704C12.216,18.631 12.354,18.669 12.482,18.857C12.744,19.246 13.03,19.619 13.309,19.997C13.651,20.457 13.73,20.48 14.251,20.242C14.293,20.222 14.333,20.201 14.375,20.181C14.589,20.52 14.809,20.854 15.016,21.196C15.301,21.683 15.649,22.13 16.053,22.523C16.514,22.957 17.02,23.084 17.598,22.812C17.95,22.647 18.294,22.464 18.628,22.263C18.835,22.137 19.001,21.956 18.999,21.681L19.447,21.006Z" style="fill-opacity:0.3;fill-rule:nonzero;"/>
        <path d="M11.632,22.064L11.345,22.747C11.229,22.598 11.142,22.747 11.052,22.783C10.822,22.877 10.602,23.031 10.361,23.079C9.573,23.239 8.945,22.955 8.472,22.312C8.213,21.96 7.964,21.602 7.697,21.258C7.065,20.444 6.301,19.806 5.296,19.495C5.078,19.423 4.867,19.333 4.663,19.227C4.079,18.939 3.747,18.452 3.589,17.834C3.652,17.883 3.717,17.928 3.777,17.981C4.165,18.32 4.508,18.228 4.65,17.725C4.747,17.371 4.778,17.003 4.744,16.638C4.683,15.895 4.662,15.149 4.651,14.404C4.644,13.934 4.683,13.464 4.705,12.994C4.735,12.365 4.769,11.735 4.802,11.105C5.081,11.917 5.37,12.726 5.636,13.542C5.78,14.025 5.995,14.485 6.272,14.907C6.415,15.114 6.519,15.347 6.656,15.558C6.713,15.645 6.766,15.818 6.938,15.683C6.979,15.723 7.02,15.76 7.062,15.802C7.347,16.066 7.563,16.02 7.714,15.653C7.783,15.484 7.826,15.303 7.882,15.129C8.078,14.532 8.275,13.934 8.472,13.336C8.448,14.196 8.422,15.056 8.401,15.915C8.393,16.271 8.371,16.628 8.396,16.981C8.434,17.532 8.697,17.991 9.082,18.371C9.407,18.695 9.747,19.003 10.103,19.292C10.722,19.79 11.163,20.396 11.363,21.173C11.436,21.477 11.54,21.768 11.632,22.064Z" style="fill:rgb(216,168,124);fill-rule:nonzero;"/>
        <path d="M4.795,11.107C4.762,11.738 4.728,12.367 4.698,12.996C4.676,13.466 4.637,13.937 4.644,14.406C4.655,15.152 4.676,15.898 4.737,16.64C4.772,17.006 4.74,17.375 4.643,17.73C4.501,18.233 4.158,18.324 3.77,17.986C3.71,17.933 3.645,17.888 3.582,17.839C3.383,17.192 3.156,16.551 2.993,15.895C2.491,13.895 2.259,11.837 2.303,9.776C2.333,8.335 2.478,6.906 2.895,5.518C2.94,5.352 2.999,5.19 3.07,5.033C3.133,4.93 3.208,4.834 3.291,4.746C3.498,4.855 3.496,5.024 3.527,5.176C3.871,6.842 4.215,8.507 4.56,10.172C4.626,10.487 4.716,10.796 4.795,11.107Z" style="fill:rgb(252,227,194);fill-rule:nonzero;"/>
        <path d="M8.467,13.339C8.271,13.937 8.074,14.534 7.878,15.132C7.821,15.306 7.779,15.486 7.71,15.656C7.556,16.023 7.343,16.069 7.057,15.805C7.015,15.766 6.974,15.728 6.933,15.686C6.938,15.617 6.938,15.548 6.933,15.479C6.779,14.269 7.425,13.345 8.03,12.409C8.063,12.362 8.104,12.321 8.152,12.288C8.341,12.151 8.491,12.211 8.496,12.446C8.503,12.741 8.478,13.041 8.467,13.339Z" style="fill:rgb(251,226,193);fill-rule:nonzero;"/>
        <path d="M12.732,15.685C12.565,14.926 12.557,14.155 12.593,13.382C12.695,11.139 12.959,8.913 13.484,6.73C13.749,5.63 14.153,4.561 14.513,3.485C14.642,3.077 14.881,2.713 15.204,2.431C15.279,2.362 15.366,2.306 15.462,2.267C15.687,2.19 15.851,2.293 15.881,2.53C15.893,2.656 15.893,2.783 15.881,2.909C15.753,4.852 15.817,6.793 15.938,8.733C15.983,9.455 16.065,10.175 16.13,10.896C16.113,11.021 16.099,11.146 16.079,11.27C15.894,12.43 15.558,13.549 15.158,14.647C15.106,14.792 15.024,14.97 14.904,15.031C14.783,15.092 14.608,15.02 14.422,15.004C14.387,15.205 14.35,15.428 14.309,15.65C14.184,16.32 13.645,16.511 13.126,16.07L12.764,15.763L12.732,15.685Z" style="fill:rgb(252,227,194);fill-rule:nonzero;"/>
        <path d="M12.768,15.772L13.131,16.079C13.649,16.519 14.189,16.328 14.313,15.658C14.355,15.436 14.39,15.214 14.427,15.013C14.613,15.029 14.795,15.099 14.908,15.039C15.021,14.98 15.111,14.798 15.163,14.656C15.562,13.554 15.898,12.435 16.084,11.279C16.104,11.154 16.118,11.029 16.135,10.905C16.26,11.498 16.365,12.096 16.518,12.683C16.6,13.002 16.749,13.307 16.875,13.613C16.931,13.72 16.996,13.823 17.07,13.92L17.147,13.902L17.218,13.55C17.255,13.494 17.295,13.439 17.327,13.379C17.614,12.835 17.891,12.287 18.186,11.748C18.304,11.534 18.461,11.341 18.6,11.138C18.515,11.612 18.412,12.082 18.349,12.559C18.235,13.411 18.134,14.266 18.05,15.122C17.998,15.659 18.136,16.171 18.347,16.662C18.442,16.896 18.548,17.126 18.666,17.349C19.192,18.286 19.357,19.311 19.419,20.362C19.432,20.579 19.44,20.797 19.45,21.015L18.999,21.691C18.451,21.655 17.9,21.645 17.357,21.573C16.934,21.514 16.567,21.254 16.37,20.876C16.082,20.381 15.789,19.887 15.505,19.388C15.21,18.881 14.83,18.43 14.38,18.053C13.955,17.686 13.554,17.293 13.179,16.875C12.91,16.571 12.764,16.178 12.768,15.772Z" style="fill:rgb(216,168,124);fill-rule:nonzero;"/>
        <path d="M18.597,11.129C18.458,11.332 18.301,11.525 18.183,11.739C17.888,12.276 17.611,12.826 17.324,13.37C17.293,13.43 17.252,13.484 17.215,13.541C17.263,12.948 17.3,12.353 17.364,11.761C17.393,11.592 17.456,11.43 17.548,11.285C17.769,10.896 18.009,10.517 18.239,10.133C18.272,10.06 18.323,9.997 18.387,9.949C18.472,9.909 18.596,9.873 18.671,9.908C18.753,9.96 18.802,10.05 18.804,10.147C18.77,10.429 18.703,10.707 18.651,10.987L18.615,11.093C18.618,11.108 18.611,11.123 18.597,11.129Z" style="fill:rgb(249,224,192);fill-rule:nonzero;"/>
        <path d="M18.617,11.094L18.663,10.989L18.617,11.094ZM12.737,15.685L12.787,15.785L12.737,15.685Z" style="fill:rgb(216,168,124);fill-rule:nonzero;"/>
    </g>
</svg>
