<?xml version="1.0" encoding="UTF-8" standalone="no"?>
<!DOCTYPE svg PUBLIC "-//W3C//DTD SVG 1.1//EN" "http://www.w3.org/Graphics/SVG/1.1/DTD/svg11.dtd">
<svg width="100%" height="100%" viewBox="0 0 32 32" version="1.1" xmlns="http://www.w3.org/2000/svg" xmlns:xlink="http://www.w3.org/1999/xlink" xml:space="preserve" xmlns:serif="http://www.serif.com/" style="fill-rule:evenodd;clip-rule:evenodd;stroke-linejoin:round;stroke-miterlimit:2;">
    <g transform="matrix(1.38943,0,0,1.38943,-0.91078,-1.6668)">
        <path d="M18.841,15.24C18.605,16.086 18.427,16.952 18.123,17.772C17.587,19.225 16.761,20.515 15.749,21.697C15.153,22.392 14.566,23.092 13.839,23.656C13.681,23.777 13.513,23.885 13.337,23.979C12.966,24.183 12.58,24.122 12.216,23.975C11.101,23.526 10.029,22.997 9.116,22.196C8.605,21.748 8.097,21.299 7.606,20.826C7.116,20.352 6.916,19.779 7.132,19.097C7.289,18.589 7.211,18.105 6.874,17.703C6.536,17.302 6.138,16.953 5.767,16.579C5.688,16.335 5.616,16.09 5.532,15.846C5.375,15.38 5.183,14.923 5.061,14.448C4.848,13.637 4.761,12.814 5.003,11.987C5.096,12.578 5.298,13.146 5.598,13.662C5.965,14.309 6.551,14.804 7.25,15.057C7.465,15.136 7.621,15.093 7.763,14.901C8.031,14.534 8.321,14.184 8.602,13.827C8.654,14.841 9.155,15.63 9.832,15.742L9.803,15.502C10.175,15.629 10.509,15.526 10.822,15.321C11.005,15.201 11.185,15.075 11.367,14.952C11.429,14.952 11.523,14.975 11.549,14.944C12.165,14.27 12.637,13.517 12.636,12.571C12.636,12.01 12.567,11.449 12.516,10.889C12.48,10.497 12.414,10.105 12.672,9.77C13.064,9.273 13.45,8.769 13.891,8.32C14.352,7.86 14.933,7.541 15.567,7.397C15.942,7.306 16.158,7.42 16.291,7.765C16.338,7.886 16.368,8.012 16.38,8.14C16.416,8.554 16.44,8.969 16.471,9.425L16.652,9.175C16.623,9.627 16.614,10.082 16.558,10.532C16.431,11.556 16.082,12.522 15.731,13.486C15.634,13.584 15.544,13.689 15.462,13.8C14.95,14.577 14.296,15.252 13.535,15.787C12.922,16.222 12.237,16.444 11.477,16.376C11.28,16.358 11.085,16.293 10.889,16.273C10.793,16.264 10.638,16.273 10.606,16.334C10.559,16.413 10.589,16.55 10.61,16.657C10.635,16.723 10.672,16.784 10.719,16.836C11.049,17.306 11.488,17.586 12.067,17.634L11.718,18.075C11.975,18.471 12.357,18.577 12.763,18.52C13.233,18.453 13.698,18.314 14.166,18.207L15.667,17.858C15.377,18.163 15.106,18.489 14.793,18.767C13.745,19.7 12.533,20.276 11.114,20.343C10.694,20.363 10.271,20.324 9.85,20.313C9.51,20.305 9.398,20.475 9.561,20.772C9.629,20.909 9.725,21.03 9.841,21.13C10.219,21.424 10.603,21.713 11.005,21.975C11.431,22.251 11.868,22.221 12.293,21.939C12.89,21.542 13.502,21.17 14.087,20.758C15.869,19.504 17.34,17.96 18.398,16.043C18.545,15.772 18.692,15.505 18.841,15.24Z" style="fill-opacity:0.3;fill-rule:nonzero;"/>
        <path d="M18.841,15.24C18.693,15.505 18.545,15.77 18.397,16.036C17.337,17.953 15.867,19.497 14.086,20.751C13.502,21.163 12.889,21.535 12.292,21.932C11.868,22.214 11.43,22.245 11.005,21.968C10.603,21.706 10.221,21.419 9.84,21.123C9.724,21.023 9.629,20.902 9.56,20.765C9.397,20.468 9.509,20.298 9.849,20.306C10.27,20.317 10.693,20.356 11.113,20.336C12.532,20.269 13.744,19.693 14.793,18.76C15.106,18.482 15.376,18.156 15.666,17.851L15.745,17.779C16.192,17.138 16.692,16.525 17.077,15.851C17.916,14.391 18.515,12.806 18.851,11.156C18.905,11.044 18.952,10.928 18.99,10.81C19.396,9.216 19.621,7.582 19.661,5.938C19.676,5.27 19.661,4.598 19.612,3.932C19.55,3.07 19.193,2.756 18.335,2.811C17.362,2.858 16.397,3.021 15.463,3.297C13.558,3.886 11.835,4.829 10.23,5.989C9.446,6.559 8.707,7.2 7.948,7.809C6.769,8.81 5.817,10.051 5.157,11.45C5.079,11.617 5.052,11.807 5,11.987C4.757,12.814 4.844,13.637 5.058,14.448C5.183,14.923 5.372,15.38 5.529,15.846C5.611,16.09 5.685,16.335 5.764,16.579L5.783,16.986C5.644,16.925 5.51,16.854 5.381,16.772C4.166,15.847 3.475,14.621 3.328,13.104C3.27,12.504 3.492,11.944 3.706,11.397C4.412,9.59 5.523,8.065 6.949,6.757C9.819,4.123 13.129,2.339 16.967,1.593C17.772,1.436 18.596,1.375 19.412,1.279C19.611,1.261 19.812,1.263 20.011,1.287C20.413,1.327 20.657,1.528 20.776,1.942C21.127,3.173 21.19,4.427 21.074,5.683C20.867,7.919 20.511,10.136 19.889,12.298C19.617,13.243 19.237,14.158 18.906,15.086L18.839,15.242L18.841,15.24Z" style="fill:rgb(79,64,63);fill-rule:nonzero;"/>
        <path d="M18.841,15.242L18.926,15.086L18.841,15.242Z" style="fill:rgb(226,123,17);fill-rule:nonzero;"/>
        <path d="M16.862,8.631C16.791,8.811 16.721,8.991 16.649,9.172L16.469,9.422C16.438,8.967 16.413,8.552 16.377,8.138C16.365,8.009 16.336,7.883 16.289,7.763C16.155,7.417 15.94,7.304 15.565,7.395C14.93,7.538 14.349,7.858 13.889,8.317C13.448,8.766 13.061,9.271 12.67,9.768C12.409,10.1 12.476,10.498 12.513,10.886C12.564,11.447 12.633,12.008 12.634,12.569C12.634,13.515 12.164,14.267 11.547,14.941C11.518,14.973 11.426,14.948 11.364,14.949C11.456,14.684 11.561,14.423 11.637,14.154C11.882,13.339 11.851,12.467 11.551,11.671C11.433,11.357 11.292,11.266 11.06,11.408C10.31,11.865 9.749,12.497 9.613,13.383C9.512,14.094 9.577,14.818 9.804,15.499L9.833,15.74C9.156,15.626 8.657,14.839 8.603,13.825C8.813,12.419 9.473,11.238 10.436,10.219C11.051,9.562 11.708,8.943 12.347,8.308C12.452,8.229 12.56,8.162 12.661,8.081C13.64,7.291 14.754,6.749 15.923,6.31C16.304,6.167 16.696,6.048 17.177,6.091C17.177,6.335 17.205,6.569 17.172,6.797C17.081,7.409 16.967,8.019 16.862,8.631Z" style="fill:rgb(79,64,63);fill-rule:nonzero;"/>
        <path d="M9.802,15.499C9.575,14.818 9.509,14.094 9.61,13.383C9.747,12.497 10.308,11.865 11.058,11.408C11.293,11.266 11.43,11.357 11.549,11.671C11.849,12.467 11.879,13.339 11.635,14.154C11.556,14.423 11.454,14.684 11.362,14.949C11.18,15.072 11.001,15.199 10.817,15.318C10.502,15.524 10.174,15.626 9.802,15.499Z" style="fill:rgb(173,95,112);fill-rule:nonzero;"/>
        <path d="M15.728,13.481C15.709,13.637 15.72,13.812 15.664,13.958C15.273,14.992 14.665,15.93 13.881,16.709C13.395,17.209 12.755,17.532 12.064,17.624C11.486,17.576 11.045,17.293 10.717,16.826C10.669,16.775 10.632,16.714 10.608,16.648C10.587,16.54 10.557,16.406 10.603,16.325C10.636,16.268 10.791,16.254 10.887,16.264C11.085,16.284 11.279,16.348 11.475,16.366C12.234,16.434 12.919,16.21 13.532,15.778C14.294,15.244 14.948,14.571 15.459,13.794C15.542,13.683 15.631,13.579 15.728,13.481Z" style="fill:rgb(80,65,62);fill-rule:nonzero;"/>
        <path d="M16.862,8.631C16.967,8.019 17.081,7.409 17.17,6.795C17.203,6.569 17.175,6.335 17.175,6.09C16.696,6.047 16.304,6.168 15.921,6.308C14.754,6.747 13.637,7.289 12.661,8.081C12.56,8.16 12.452,8.233 12.347,8.308C11.693,8.486 11.042,8.681 10.382,8.836C9.834,8.964 9.28,9.047 8.727,9.145C8.635,9.16 8.541,9.164 8.447,9.158C7.967,9.131 7.772,8.914 7.82,8.431C7.85,8.222 7.889,8.015 7.939,7.811C8.699,7.202 9.434,6.557 10.221,5.991C11.826,4.831 13.549,3.887 15.454,3.299C16.389,3.023 17.353,2.859 18.326,2.812C19.185,2.76 19.541,3.068 19.603,3.934C19.65,4.6 19.667,5.272 19.653,5.939C19.612,7.583 19.387,9.218 18.981,10.811C18.943,10.93 18.897,11.045 18.842,11.157C18.796,11.017 18.754,10.875 18.703,10.737C18.573,10.389 18.468,10.031 18.301,9.699C18.005,9.109 17.494,8.782 16.862,8.631Z" style="fill:rgb(252,227,194);fill-rule:nonzero;"/>
        <path d="M15.663,17.873L15.763,17.782L15.663,17.873Z" style="fill:rgb(226,123,17);fill-rule:nonzero;"/>
    </g>
</svg>
